<?xml version="1.0" encoding="utf-8"?>
<!-- Generator: Adobe Illustrator 19.2.1, SVG Export Plug-In . SVG Version: 6.00 Build 0)  -->
<svg version="1.1" id="layer" xmlns="http://www.w3.org/2000/svg" xmlns:xlink="http://www.w3.org/1999/xlink" x="0px" y="0px"
	 viewBox="0 0 652 652" style="enable-background:new 0 0 652 652;" xml:space="preserve">
<style type="text/css">
	.st0{fill-rule:evenodd;clip-rule:evenodd;fill:#055092;}
	.st1{fill-rule:evenodd;clip-rule:evenodd;fill:#EE730D;}
</style>
<path class="st0" d="M66.7,384.1c1-11.3,7.2-19.8,19.5-19.8c12.3,0,17.2,9.2,17.9,19.8H66.7z M118.9,412c-8.2,4.6-17.4,8.5-28,8.5
	c-13.6,0-23.1-7.7-24.1-21.3h58.4c0-29.5-8.8-51-40.2-51c-26.2,0-39.2,20.2-39.2,44.6c0,27.7,16.2,43.8,44.1,43.8
	c11.8,0,21-2.3,29-6.7V412z"/>
<rect x="144.4" y="311.7" class="st0" width="22" height="123"/>
<path class="st0" d="M206.6,384.1c1-11.3,7.2-19.8,19.5-19.8c12.3,0,17.2,9.2,17.9,19.8H206.6z M258.7,412c-8.2,4.6-17.4,8.5-28,8.5
	c-13.6,0-23.1-7.7-24.1-21.3H265c0-29.5-8.9-51-40.2-51c-26.2,0-39.2,20.2-39.2,44.6c0,27.7,16.2,43.8,44.1,43.8
	c11.8,0,21-2.3,29-6.7V412z"/>
<path class="st0" d="M340.5,351c-6.1-1.8-12.5-2.8-21.3-2.8c-26.4,0-40.8,19.3-40.8,43.8c0,25.7,13.9,44.6,41.6,44.6
	c9,0,15.6-0.8,22-2.8l-1-18.2c-3.8,1.6-10.7,3.9-16.9,3.9c-15.4,0-22.8-12-22.8-27.5c0-15.9,8.7-26.7,22.3-26.7
	c6.7,0,11,1.3,14.9,3.1L340.5,351z"/>
<path class="st0" d="M358.1,434.6h22v-41.3c0-10.8,3.4-28,19.3-28c14.1,0,14.3,13.9,14.3,24.3v45.1h22v-53.3
	c0-19-8.7-33.1-28.7-33.1c-11.5,0-20.8,3.8-27.7,13.4h-0.3v-11.5h-20.8V434.6z"/>
<path class="st0" d="M454.5,393c0,24.3,16.2,43.6,44.1,43.6c28,0,44.3-19.3,44.3-43.6c0-27.9-19.2-44.8-44.3-44.8
	C473.6,348.2,454.5,365.1,454.5,393 M477.4,390.4c0-12.6,6.9-25.1,21.2-25.1c14.4,0,21.3,12.1,21.3,25.1c0,14.1-4.4,29.2-21.3,29.2
	C481.8,419.6,477.4,404.3,477.4,390.4"/>
<path class="st0" d="M562.1,434.6h22v-31c0-12.1,0-34.4,17.9-34.4c3.9,0,7.9,0.7,9.8,1.8v-22.1c-2.3-0.7-4.6-0.7-6.7-0.7
	c-13.1,0-22.1,13.3-23.1,21.2h-0.3v-19.2h-19.5V434.6z"/>
<path class="st1" d="M20.2,293.5c0,0,188.5-102.6,335.2-77.3c146.7,25.3-42,121,107.1,103.8c94.3-10.9,157.7-53.1,157.7-53.1
	s-58.8,28.7-134.4,18.1c-123.8-17.3-129.3-40.3-242.6-40.3C124,244.7,20.2,293.5,20.2,293.5"/>
</svg>
