?xml version="1.0" encoding="UTF-8"?>
<svg id="Layer_1" data-name="Layer 1" xmlns="http://www.w3.org/2000/svg" width="110" height="auto" viewBox="0 0 1320.74 552.44">
  <defs>
    <linearGradient id="gradient" x1="0%" y1="0%" x2="100%" y2="0%">
      <stop offset="0%" style="stop-color: #FF0000" /> <!-- Red color -->
      <stop offset="100%" style="stop-color: #00FF00" /> <!-- Green color -->
    </linearGradient>
  </defs>
  <polygon points="775.37 0 667.2 0 590.92 86.53 668.34 86.53 775.37 0"/>
  <path d="m1246.17,135.78c-11.46,6.48-21.13,14.76-29.03,24.85v-37.09h-103.04v102.77c-3.66-12.69-8.77-24.37-15.37-35.03-14.8-23.91-34.73-42.03-59.78-54.37-25.05-12.33-52.76-18.5-83.12-18.5-32.26,0-61.3,6.74-87.1,20.21-25.81,13.48-46.02,32.26-60.63,56.36-3.01,4.97-5.7,10.09-8.09,15.35-3.02-7.21-6.57-14.05-10.69-20.47-15-23.34-34.83-41.08-59.49-53.23-25.05-12.33-52.76-18.22-81.41-18.22-32.64,0-61.87,6.74-87.67,20.21-19.17,10.01-35.3,22.96-48.39,38.82v-59.03c-29.23,0-54.08,5.79-74.58,17.36-11.46,6.48-21.13,14.76-29.03,24.85v-37.09h-103.04v50.81c-9.99-13.48-22.69-24.73-38.14-33.73-25.43-14.8-55.6-22.2-90.52-22.2s-64.62,6.74-91.37,20.21c-26.76,13.48-47.73,32.17-62.91,56.08C7.59,218.61,0,246.13,0,277.25s7.59,58.74,22.77,82.83c15.18,24.11,36.15,42.98,62.91,56.64s57.21,20.5,91.37,20.5,65.09-7.4,90.52-22.2c15.45-9,28.15-20.25,38.14-33.73v50.8h108.17v-141.75c0-26.94,6.83-46.4,20.49-58.35s31.5-17.93,53.51-17.93c.71,0,1.4,0,2.09.01-8.22,19.22-12.33,40.27-12.33,63.18,0,30.74,7.49,58.17,22.49,82.26,14.99,24.11,36.05,43.08,63.19,56.93,27.13,13.86,58.92,20.78,95.36,20.78,29.22,0,54.74-4.27,76.57-12.81,21.82-8.54,39.94-20.97,54.37-37.29l-56.36-59.21c-10.63,9.11-21.35,15.85-32.17,20.21-10.82,4.37-23.82,6.55-39,6.55-16.71,0-30.94-2.94-42.7-8.82-11.77-5.88-20.69-14.99-26.76-27.33-.13-.26-.25-.54-.38-.81l193.99-37.17c.52,29.4,7.98,55.73,22.44,78.96,14.99,24.11,36.05,43.08,63.19,56.93,27.13,13.86,58.92,20.78,95.36,20.78,29.6,0,55.22-4.27,76.85-12.81s39.85-20.97,54.65-37.29l-56.93-59.21c-10.63,9.11-21.35,15.85-32.17,20.21-10.82,4.37-23.82,6.55-39,6.55-16.32,0-30.37-2.94-42.13-8.82-11.77-5.88-20.78-14.32-27.04-25.33-2.69-4.74-4.81-9.86-6.34-15.37h218.97v126.95h108.17v-141.75c0-26.94,6.83-46.4,20.49-58.35s31.5-17.93,53.51-17.93c4.17,0,8.06.1,11.67.29,3.6.2,7.87.67,12.81,1.42v-97.35c-29.23,0-54.08,5.79-74.58,17.36h.01Zm-940.47,208.48l-67.74-34.56c-7.21,14.43-16.14,24.96-26.76,31.6-10.63,6.64-22.2,9.96-34.73,9.96s-23.91-2.85-34.16-8.54-18.32-14.04-24.2-25.05c-5.89-11-8.82-24.48-8.82-40.42s2.94-28.75,8.82-39.57c5.88-10.82,13.95-19.07,24.2-24.76s21.63-8.54,34.16-8.54,24.1,3.33,34.73,9.96c10.62,6.64,19.54,17.18,26.76,31.6l67.74-34.56v132.89h0Zm278.09-82c.79-12.59,3.36-23.55,7.7-32.85,5.31-11.39,13-19.93,23.06-25.62,10.05-5.69,21.54-8.54,34.44-8.54s23.53,2.85,33.02,8.54c9.48,5.69,16.88,13.38,22.2,23.06,1.95,3.56,3.52,7.31,4.7,11.25l-125.12,24.15h0Zm309.66-14.05c1.29-7.35,3.48-14.09,6.6-20.21,5.31-10.43,12.81-18.5,22.49-24.19s20.97-8.54,33.87-8.54,24.19,2.85,33.87,8.54c9.68,5.69,17.27,13.66,22.77,23.91,3.3,6.15,5.53,12.98,6.71,20.49h-126.32.01Zm309.66-14.05c1.29-7.35,3.48-14.09,6.6-20.21,5.31-10.43,12.81-18.5,22.49-24.19s20.97-8.54,33.87-8.54,24.19,2.85,33.87,8.54c9.68,5.69,17.27,13.66,22.77,23.91,3.3,6.15,5.53,12.98,6.71,20.49h-126.32.01Z"/>
  <path d="m993.13,464.21l-39.15,87h16.65l8.62-20.13h43.52l8.65,20.13h16.9l-39.28-87h-15.91Zm-8.46,54.19l16.29-38.08,16.35,38.08h-32.65.01Z"/>
  <path d="m1122.27,469.68c-7.13-3.65-15.41-5.47-24.86-5.47h-38.03v87h38.03c9.45,0,17.73-1.82,24.86-5.47,7.13-3.65,12.68-8.72,16.66-15.23,3.98-6.5,5.97-14.11,5.97-22.81s-1.99-16.41-5.97-22.87-9.53-11.52-16.66-15.16h0Zm2.42,53.7c-2.61,4.47-6.3,7.95-11.06,10.44-4.77,2.49-10.42,3.73-16.97,3.73h-21.13v-59.66h21.13c6.54,0,12.2,1.24,16.97,3.73,4.76,2.49,8.45,5.95,11.06,10.38,2.61,4.43,3.92,9.68,3.92,15.72s-1.3,11.19-3.92,15.66h0Z"/>
  <path d="m1214.05,508.21c-3.03-1.74-6.38-3.15-10.07-4.23-3.69-1.08-7.4-2.05-11.12-2.92-3.73-.87-7.11-1.76-10.13-2.67-3.03-.91-5.47-2.18-7.33-3.79-1.86-1.62-2.8-3.75-2.8-6.4,0-2.24.64-4.23,1.93-5.97,1.28-1.74,3.31-3.15,6.09-4.23,2.78-1.08,6.4-1.62,10.88-1.62,3.81,0,7.79.56,11.93,1.68s8.16,2.84,12.06,5.16l5.1-12.55c-3.81-2.49-8.29-4.39-13.42-5.72-5.14-1.32-10.32-1.99-15.54-1.99-7.96,0-14.52,1.18-19.7,3.54-5.18,2.36-9.03,5.51-11.56,9.45s-3.79,8.27-3.79,12.99.95,8.45,2.86,11.43,4.37,5.37,7.4,7.15c3.02,1.78,6.38,3.23,10.07,4.35s7.37,2.09,11.06,2.92c3.69.83,7.04,1.72,10.07,2.67,3.02.95,5.49,2.24,7.4,3.85,1.91,1.62,2.86,3.75,2.86,6.4,0,2.16-.66,4.08-1.99,5.78s-3.4,3.04-6.21,4.04c-2.82.99-6.51,1.49-11.06,1.49-5.39,0-10.65-.91-15.79-2.73s-9.45-4.1-12.93-6.84l-5.59,12.55c3.64,3.07,8.58,5.57,14.79,7.52,6.21,1.95,12.72,2.92,19.51,2.92,7.96,0,14.54-1.18,19.76-3.54s9.09-5.51,11.62-9.45c2.53-3.93,3.79-8.22,3.79-12.86s-.93-8.33-2.8-11.31c-1.86-2.98-4.31-5.34-7.33-7.08h-.02Z"/>
  <path d="m1246.18,531.45c-2.82,0-5.22.93-7.21,2.8-1.99,1.86-2.98,4.37-2.98,7.52,0,2.98.99,5.45,2.98,7.4s4.39,2.92,7.21,2.92,5.22-.97,7.21-2.92,2.98-4.41,2.98-7.4c0-3.15-.99-5.66-2.98-7.52-1.99-1.86-4.39-2.8-7.21-2.8Z"/>
</svg>

