<?xml version="1.0" encoding="UTF-8"?>
<svg id="Layer_1" data-name="Layer 1" xmlns="http://www.w3.org/2000/svg" viewBox="0 0 1347.11 641.99">
  <g>
    <polygon points="790.75 46.78 682.58 46.78 606.3 133.31 683.72 133.31 790.75 46.78"/>
    <path d="m1261.55,182.56c-11.46,6.48-21.13,14.76-29.03,24.85v-37.09h-103.04v102.77c-3.66-12.69-8.77-24.37-15.37-35.03-14.8-23.91-34.73-42.03-59.78-54.37-25.05-12.33-52.76-18.5-83.12-18.5-32.26,0-61.3,6.74-87.1,20.21-25.81,13.48-46.02,32.26-60.63,56.36-3.01,4.97-5.7,10.09-8.09,15.35-3.02-7.21-6.57-14.05-10.69-20.47-15-23.34-34.83-41.08-59.49-53.23-24.67-12.14-51.81-18.22-81.41-18.22-32.64,0-61.87,6.74-87.67,20.21-19.17,10.01-35.3,22.96-48.39,38.82v-59.03c-29.23,0-54.08,5.79-74.58,17.36-11.46,6.48-21.13,14.76-29.03,24.85v-37.09h-103.04v50.81c-9.99-13.48-22.69-24.73-38.14-33.73-25.43-14.8-55.6-22.2-90.52-22.2s-64.62,6.74-91.37,20.21c-26.76,13.48-47.73,32.17-62.91,56.08-15.18,23.91-22.77,51.43-22.77,82.55s7.59,58.74,22.77,82.83c15.18,24.11,36.15,42.98,62.91,56.64,26.76,13.66,57.21,20.5,91.37,20.5s65.09-7.4,90.52-22.2c15.45-9,28.15-20.25,38.14-33.73v50.8h108.17v-141.75c0-26.94,6.83-46.4,20.49-58.35s31.5-17.93,53.51-17.93c.71,0,1.4,0,2.09.01-8.22,19.22-12.33,40.27-12.33,63.18,0,30.74,7.49,58.17,22.49,82.26,14.99,24.11,36.05,43.08,63.19,56.93,27.13,13.86,58.92,20.78,95.36,20.78,29.22,0,54.74-4.27,76.57-12.81,21.82-8.54,39.94-20.97,54.37-37.29l-56.36-59.21c-10.63,9.11-21.35,15.85-32.17,20.21-10.82,4.37-23.82,6.55-39,6.55-16.71,0-30.94-2.94-42.7-8.82-11.77-5.88-20.69-14.99-26.76-27.33-.13-.26-.25-.54-.38-.81l193.99-37.17c.52,29.4,7.98,55.73,22.44,78.96,14.99,24.11,36.05,43.08,63.19,56.93,27.13,13.86,58.92,20.78,95.36,20.78,29.6,0,55.22-4.27,76.85-12.81,21.63-8.54,39.85-20.97,54.65-37.29l-56.93-59.21c-10.63,9.11-21.35,15.85-32.17,20.21-10.82,4.37-23.82,6.55-39,6.55-16.32,0-30.37-2.94-42.13-8.82-11.77-5.88-20.78-14.32-27.04-25.33-2.69-4.74-4.81-9.86-6.34-15.37h218.97v126.95h108.17v-141.75c0-26.94,6.83-46.4,20.49-58.35s31.5-17.93,53.51-17.93c4.17,0,8.06.1,11.67.29,3.6.2,7.87.67,12.81,1.42v-97.35c-29.23,0-54.08,5.79-74.58,17.36ZM253.34,356.47c-7.21,14.43-16.14,24.96-26.76,31.6-10.63,6.64-22.2,9.96-34.73,9.96s-23.91-2.85-34.16-8.54c-10.25-5.69-18.32-14.04-24.2-25.05-5.89-11-8.82-24.48-8.82-40.42s2.94-28.75,8.82-39.57c5.88-10.82,13.95-19.07,24.2-24.76,10.25-5.69,21.63-8.54,34.16-8.54s24.1,3.33,34.73,9.96c10.62,6.64,19.54,17.18,26.76,31.6l67.74-34.56v132.89l-67.74-34.56Zm376.59-105.89c10.05-5.69,21.54-8.54,34.44-8.54s23.53,2.85,33.02,8.54c9.48,5.69,16.88,13.38,22.2,23.06,1.95,3.56,3.52,7.31,4.7,11.25l-125.12,24.15c.79-12.59,3.36-23.55,7.7-32.85,5.31-11.39,13-19.93,23.06-25.62Zm307.99,0c9.68-5.69,20.97-8.54,33.87-8.54s24.19,2.85,33.87,8.54c9.68,5.69,17.27,13.66,22.77,23.91,3.3,6.15,5.53,12.98,6.71,20.49h-126.32c1.29-7.35,3.48-14.09,6.6-20.21,5.31-10.43,12.81-18.5,22.49-24.19Z"/>
  </g>
  <g>
    <path d="m969.36,597.99l39.15-87h15.91l39.28,87h-16.9l-33.68-78.43h6.46l-33.56,78.43h-16.65Zm18.02-20.13l4.35-12.68h46.98l4.35,12.68h-55.68Z"/>
    <path d="m1074.76,597.99v-87h38.03c9.45,0,17.73,1.82,24.86,5.47,7.13,3.65,12.68,8.7,16.66,15.16s5.97,14.09,5.97,22.87-1.99,16.3-5.97,22.81c-3.98,6.51-9.53,11.58-16.66,15.23-7.13,3.65-15.41,5.47-24.86,5.47h-38.03Zm16.16-13.67h21.13c6.54,0,12.2-1.24,16.97-3.73,4.76-2.49,8.45-5.97,11.06-10.44s3.92-9.7,3.92-15.66-1.3-11.29-3.92-15.72c-2.61-4.43-6.3-7.89-11.06-10.38-4.77-2.49-10.42-3.73-16.97-3.73h-21.13v59.66Z"/>
    <path d="m1204.39,599.24c-6.79,0-13.3-.98-19.51-2.92-6.21-1.95-11.15-4.45-14.79-7.52l5.59-12.55c3.48,2.73,7.79,5.01,12.93,6.84,5.14,1.82,10.4,2.73,15.79,2.73,4.56,0,8.24-.5,11.06-1.49,2.82-.99,4.89-2.34,6.21-4.04,1.32-1.7,1.99-3.62,1.99-5.78,0-2.65-.95-4.79-2.86-6.4-1.91-1.62-4.37-2.9-7.4-3.85-3.03-.95-6.38-1.84-10.07-2.67-3.69-.83-7.38-1.8-11.06-2.92-3.69-1.12-7.04-2.57-10.07-4.35-3.03-1.78-5.49-4.16-7.4-7.15-1.91-2.98-2.86-6.79-2.86-11.43s1.26-9.05,3.79-12.99c2.53-3.93,6.38-7.08,11.56-9.45,5.18-2.36,11.75-3.54,19.7-3.54,5.22,0,10.4.66,15.54,1.99,5.14,1.33,9.61,3.23,13.42,5.72l-5.1,12.55c-3.9-2.32-7.91-4.04-12.06-5.16-4.14-1.12-8.12-1.68-11.93-1.68-4.47,0-8.1.54-10.88,1.62-2.78,1.08-4.81,2.49-6.09,4.23-1.29,1.74-1.93,3.73-1.93,5.97,0,2.65.93,4.79,2.8,6.4,1.86,1.62,4.31,2.88,7.33,3.79,3.02.91,6.4,1.8,10.13,2.67,3.73.87,7.44,1.84,11.12,2.92,3.69,1.08,7.04,2.49,10.07,4.23,3.02,1.74,5.47,4.1,7.33,7.08,1.86,2.98,2.8,6.75,2.8,11.31s-1.26,8.93-3.79,12.86c-2.53,3.94-6.4,7.08-11.62,9.45-5.22,2.36-11.81,3.54-19.76,3.54Z"/>
    <path d="m1261.56,598.86c-2.82,0-5.22-.97-7.21-2.92-1.99-1.95-2.98-4.41-2.98-7.4,0-3.15.99-5.66,2.98-7.52,1.99-1.86,4.39-2.8,7.21-2.8s5.22.93,7.21,2.8c1.99,1.86,2.98,4.37,2.98,7.52,0,2.98-.99,5.45-2.98,7.4-1.99,1.95-4.39,2.92-7.21,2.92Z"/>
  </g>
</svg>