<?xml version="1.0" encoding="utf-8"?>
<!-- Generator: Adobe Illustrator 27.1.1, SVG Export Plug-In . SVG Version: 6.00 Build 0)  -->
<svg version="1.1" id="Layer_1" xmlns="http://www.w3.org/2000/svg" xmlns:xlink="http://www.w3.org/1999/xlink" x="0px" y="0px"
	 viewBox="0 0 1347.1 642" style="enable-background:new 0 0 1347.1 642;" xml:space="preserve">
<style type="text/css">
	.st0{fill:url(#SVGID_1_);}
	.st1{fill:url(#SVGID_00000167365898163122408900000004859970503645615278_);}
	.st2{fill:url(#SVGID_00000067956532987246435800000001386437902210391210_);}
	.st3{fill:url(#SVGID_00000041294314139415246120000007975966572341476225_);}
	.st4{fill:url(#SVGID_00000080207737287706136530000010301885022147765120_);}
	.st5{fill:url(#SVGID_00000118381575597369419880000009501318481228475526_);}
	.st6{fill:url(#SVGID_00000172420294055326507600000009063561422366014611_);}
	.st7{fill:url(#SVGID_00000102508860871895614260000012023403279436777113_);}
	.st8{fill:url(#SVGID_00000086690249141048635510000017562709823989017001_);}
	.st9{fill:url(#SVGID_00000012440259200427806140000015811009875948619927_);}
	.st10{fill:url(#SVGID_00000177460684878612718440000000649110644306675842_);}
</style>
<linearGradient id="SVGID_1_" gradientUnits="userSpaceOnUse" x1="606.3" y1="90.045" x2="790.75" y2="90.045">
	<stop  offset="0" style="stop-color:#696969"/>
	<stop  offset="0.1041" style="stop-color:#4E4E4E"/>
	<stop  offset="0.2415" style="stop-color:#323232"/>
	<stop  offset="0.3895" style="stop-color:#1C1C1C"/>
	<stop  offset="0.5511" style="stop-color:#0C0C0C"/>
	<stop  offset="0.7366" style="stop-color:#030303"/>
	<stop  offset="1" style="stop-color:#000000"/>
</linearGradient>
<polygon class="st0" points="790.8,46.8 682.6,46.8 606.3,133.3 683.7,133.3 "/>
<linearGradient id="SVGID_00000036965231903748352150000016779131130643441579_" gradientUnits="userSpaceOnUse" x1="1500" y1="324.595" x2="-182.0996" y2="324.595">
	<stop  offset="0" style="stop-color:#696969"/>
	<stop  offset="9.079516e-03" style="stop-color:#666666"/>
	<stop  offset="0.1163" style="stop-color:#464646"/>
	<stop  offset="0.2326" style="stop-color:#2D2D2D"/>
	<stop  offset="0.3615" style="stop-color:#191919"/>
	<stop  offset="0.5085" style="stop-color:#0B0B0B"/>
	<stop  offset="0.6888" style="stop-color:#020202"/>
	<stop  offset="1" style="stop-color:#000000"/>
</linearGradient>
<path style="fill:url(#SVGID_00000036965231903748352150000016779131130643441579_);" d="M1261.6,182.6c-11.5,6.5-21.1,14.8-29,24.9
	v-37.1h-103v102.8c-3.7-12.7-8.8-24.4-15.4-35c-14.8-23.9-34.7-42-59.8-54.4c-25.1-12.3-52.8-18.5-83.1-18.5
	c-32.3,0-61.3,6.7-87.1,20.2c-25.8,13.5-46,32.3-60.6,56.4c-3,5-5.7,10.1-8.1,15.3c-3-7.2-6.6-14.1-10.7-20.5
	c-15-23.3-34.8-41.1-59.5-53.2c-24.7-12.1-51.8-18.2-81.4-18.2c-32.6,0-61.9,6.7-87.7,20.2c-19.2,10-35.3,23-48.4,38.8v-59
	c-29.2,0-54.1,5.8-74.6,17.4c-11.5,6.5-21.1,14.8-29,24.9v-37.1h-103v50.8c-10-13.5-22.7-24.7-38.1-33.7
	c-25.4-14.8-55.6-22.2-90.5-22.2s-64.6,6.7-91.4,20.2c-26.8,13.5-47.7,32.2-62.9,56.1S15.4,292.9,15.4,324s7.6,58.7,22.8,82.8
	c15.2,24.1,36.1,43,62.9,56.6s57.2,20.5,91.4,20.5s65.1-7.4,90.5-22.2c15.5-9,28.1-20.2,38.1-33.7v50.8h108.2V337.1
	c0-26.9,6.8-46.4,20.5-58.4s31.5-17.9,53.5-17.9c0.7,0,1.4,0,2.1,0c-8.2,19.2-12.3,40.3-12.3,63.2c0,30.7,7.5,58.2,22.5,82.3
	c15,24.1,36,43.1,63.2,56.9c27.1,13.9,58.9,20.8,95.4,20.8c29.2,0,54.7-4.3,76.6-12.8c21.8-8.5,39.9-21,54.4-37.3l-56.4-59.2
	c-10.6,9.1-21.3,15.9-32.2,20.2c-10.8,4.4-23.8,6.5-39,6.5c-16.7,0-30.9-2.9-42.7-8.8c-11.8-5.9-20.7-15-26.8-27.3
	c-0.1-0.3-0.2-0.5-0.4-0.8l194-37.2c0.5,29.4,8,55.7,22.4,79c15,24.1,36,43.1,63.2,56.9c27.1,13.9,58.9,20.8,95.4,20.8
	c29.6,0,55.2-4.3,76.8-12.8s39.8-21,54.7-37.3l-56.9-59.2c-10.6,9.1-21.3,15.9-32.2,20.2c-10.8,4.4-23.8,6.5-39,6.5
	c-16.3,0-30.4-2.9-42.1-8.8c-11.8-5.9-20.8-14.3-27-25.3c-2.7-4.7-4.8-9.9-6.3-15.4h219v127h108.2V337.1c0-26.9,6.8-46.4,20.5-58.4
	s31.5-17.9,53.5-17.9c4.2,0,8.1,0.1,11.7,0.3c3.6,0.2,7.9,0.7,12.8,1.4v-97.4C1306.9,165.2,1282,171,1261.6,182.6L1261.6,182.6z
	 M321.1,391l-67.7-34.6c-7.2,14.4-16.1,25-26.8,31.6c-10.6,6.6-22.2,10-34.7,10s-23.9-2.9-34.2-8.5s-18.3-14-24.2-25
	c-5.9-11-8.8-24.5-8.8-40.4s2.9-28.8,8.8-39.6c5.9-10.8,13.9-19.1,24.2-24.8s21.6-8.5,34.2-8.5s24.1,3.3,34.7,10
	c10.6,6.6,19.5,17.2,26.8,31.6l67.7-34.6V391L321.1,391z M599.2,309c0.8-12.6,3.4-23.5,7.7-32.9c5.3-11.4,13-19.9,23.1-25.6
	c10-5.7,21.5-8.5,34.4-8.5s23.5,2.9,33,8.5c9.5,5.7,16.9,13.4,22.2,23.1c2,3.6,3.5,7.3,4.7,11.2L599.2,309L599.2,309z M908.8,295
	c1.3-7.4,3.5-14.1,6.6-20.2c5.3-10.4,12.8-18.5,22.5-24.2s21-8.5,33.9-8.5s24.2,2.9,33.9,8.5c9.7,5.7,17.3,13.7,22.8,23.9
	c3.3,6.1,5.5,13,6.7,20.5H908.8L908.8,295z"/>
<linearGradient id="SVGID_00000181788307623080168140000015419319684719723439_" gradientUnits="userSpaceOnUse" x1="1500" y1="554.49" x2="1016.2365" y2="554.49">
	<stop  offset="0" style="stop-color:#696969"/>
	<stop  offset="0.1041" style="stop-color:#4E4E4E"/>
	<stop  offset="0.2415" style="stop-color:#323232"/>
	<stop  offset="0.3895" style="stop-color:#1C1C1C"/>
	<stop  offset="0.5511" style="stop-color:#0C0C0C"/>
	<stop  offset="0.7366" style="stop-color:#030303"/>
	<stop  offset="1" style="stop-color:#000000"/>
</linearGradient>
<path style="fill:url(#SVGID_00000181788307623080168140000015419319684719723439_);" d="M1008.5,511l-39.2,87H986l8.6-20.1h43.5
	l8.7,20.1h16.9l-39.3-87H1008.5L1008.5,511z M1000,565.2l16.3-38.1l16.3,38.1H1000L1000,565.2z"/>
<linearGradient id="SVGID_00000075868656965325033300000010892220511964401035_" gradientUnits="userSpaceOnUse" x1="1500" y1="554.49" x2="1016.2365" y2="554.49">
	<stop  offset="0" style="stop-color:#696969"/>
	<stop  offset="0.1041" style="stop-color:#4E4E4E"/>
	<stop  offset="0.2415" style="stop-color:#323232"/>
	<stop  offset="0.3895" style="stop-color:#1C1C1C"/>
	<stop  offset="0.5511" style="stop-color:#0C0C0C"/>
	<stop  offset="0.7366" style="stop-color:#030303"/>
	<stop  offset="1" style="stop-color:#000000"/>
</linearGradient>
<path style="fill:url(#SVGID_00000075868656965325033300000010892220511964401035_);" d="M1137.7,516.5c-7.1-3.7-15.4-5.5-24.9-5.5
	h-38v87h38c9.4,0,17.7-1.8,24.9-5.5c7.1-3.7,12.7-8.7,16.7-15.2c4-6.5,6-14.1,6-22.8s-2-16.4-6-22.9S1144.8,520.1,1137.7,516.5
	L1137.7,516.5z M1140.1,570.2c-2.6,4.5-6.3,8-11.1,10.4c-4.8,2.5-10.4,3.7-17,3.7h-21.1v-59.7h21.1c6.5,0,12.2,1.2,17,3.7
	c4.8,2.5,8.4,6,11.1,10.4c2.6,4.4,3.9,9.7,3.9,15.7S1142.7,565.7,1140.1,570.2L1140.1,570.2z"/>
<linearGradient id="SVGID_00000079473680015347524880000008853184651130782867_" gradientUnits="userSpaceOnUse" x1="1500" y1="554.48" x2="1016.2365" y2="554.48">
	<stop  offset="0" style="stop-color:#696969"/>
	<stop  offset="0.1041" style="stop-color:#4E4E4E"/>
	<stop  offset="0.2415" style="stop-color:#323232"/>
	<stop  offset="0.3895" style="stop-color:#1C1C1C"/>
	<stop  offset="0.5511" style="stop-color:#0C0C0C"/>
	<stop  offset="0.7366" style="stop-color:#030303"/>
	<stop  offset="1" style="stop-color:#000000"/>
</linearGradient>
<path style="fill:url(#SVGID_00000079473680015347524880000008853184651130782867_);" d="M1229.4,555c-3-1.7-6.4-3.2-10.1-4.2
	c-3.7-1.1-7.4-2-11.1-2.9c-3.7-0.9-7.1-1.8-10.1-2.7c-3-0.9-5.5-2.2-7.3-3.8c-1.9-1.6-2.8-3.8-2.8-6.4c0-2.2,0.6-4.2,1.9-6
	c1.3-1.7,3.3-3.2,6.1-4.2c2.8-1.1,6.4-1.6,10.9-1.6c3.8,0,7.8,0.6,11.9,1.7s8.2,2.8,12.1,5.2l5.1-12.5c-3.8-2.5-8.3-4.4-13.4-5.7
	c-5.1-1.3-10.3-2-15.5-2c-8,0-14.5,1.2-19.7,3.5c-5.2,2.4-9,5.5-11.6,9.5s-3.8,8.3-3.8,13s0.9,8.5,2.9,11.4s4.4,5.4,7.4,7.2
	c3,1.8,6.4,3.2,10.1,4.3s7.4,2.1,11.1,2.9c3.7,0.8,7,1.7,10.1,2.7c3,1,5.5,2.2,7.4,3.8c1.9,1.6,2.9,3.8,2.9,6.4c0,2.2-0.7,4.1-2,5.8
	s-3.4,3-6.2,4c-2.8,1-6.5,1.5-11.1,1.5c-5.4,0-10.7-0.9-15.8-2.7s-9.4-4.1-12.9-6.8l-5.6,12.5c3.6,3.1,8.6,5.6,14.8,7.5
	c6.2,2,12.7,2.9,19.5,2.9c8,0,14.5-1.2,19.8-3.5s9.1-5.5,11.6-9.5c2.5-3.9,3.8-8.2,3.8-12.9s-0.9-8.3-2.8-11.3
	C1234.9,559.1,1232.5,556.7,1229.4,555L1229.4,555z"/>
<path d="M1261.6,578.2c-2.8,0-5.2,0.9-7.2,2.8c-2,1.9-3,4.4-3,7.5c0,3,1,5.5,3,7.4s4.4,2.9,7.2,2.9s5.2-1,7.2-2.9s3-4.4,3-7.4
	c0-3.2-1-5.7-3-7.5C1266.8,579.2,1264.4,578.2,1261.6,578.2z"/>
</svg>
