<?xml version="1.0" encoding="utf-8"?>
<!-- Generator: Adobe Illustrator 27.1.1, SVG Export Plug-In . SVG Version: 6.00 Build 0)  -->
<svg version="1.1" id="Layer_1" xmlns="http://www.w3.org/2000/svg" xmlns:xlink="http://www.w3.org/1999/xlink" x="0px" y="0px"
	 viewBox="0 0 1347.1 642" style="enable-background:new 0 0 1347.1 642;" xml:space="preserve">
<style type="text/css">
	.st0{fill:url(#SVGID_1_);}
	.st1{fill:url(#SVGID_00000030450648340069812020000006719889618472144298_);}
	.st2{fill:url(#SVGID_00000160187621971805664340000007818609883781736331_);}
	.st3{fill:url(#SVGID_00000034793642447733018950000003421375353387858863_);}
	.st4{fill:url(#SVGID_00000118358046598348855630000016372954428564992913_);}
	.st5{fill:url(#SVGID_00000112595657876858379580000007842511134203374742_);}
</style>
<polygon points="790.8,46.8 682.6,46.8 606.3,133.3 683.7,133.3 "/>
<path d="M1261.6,182.6c-11.5,6.5-21.1,14.8-29,24.9v-37.1h-103v102.8c-3.7-12.7-8.8-24.4-15.4-35c-14.8-23.9-34.7-42-59.8-54.4
	c-25.1-12.3-52.8-18.5-83.1-18.5c-32.3,0-61.3,6.7-87.1,20.2c-25.8,13.5-46,32.3-60.6,56.4c-3,5-5.7,10.1-8.1,15.3
	c-3-7.2-6.6-14.1-10.7-20.5c-15-23.3-34.8-41.1-59.5-53.2c-24.7-12.1-51.8-18.2-81.4-18.2c-32.6,0-61.9,6.7-87.7,20.2
	c-19.2,10-35.3,23-48.4,38.8v-59c-29.2,0-54.1,5.8-74.6,17.4c-11.5,6.5-21.1,14.8-29,24.9v-37.1h-103v50.8
	c-10-13.5-22.7-24.7-38.1-33.7c-25.4-14.8-55.6-22.2-90.5-22.2s-64.6,6.7-91.4,20.2c-26.8,13.5-47.7,32.2-62.9,56.1
	S15.4,292.9,15.4,324s7.6,58.7,22.8,82.8c15.2,24.1,36.1,43,62.9,56.6s57.2,20.5,91.4,20.5s65.1-7.4,90.5-22.2
	c15.5-9,28.1-20.2,38.1-33.7v50.8h108.2V337.1c0-26.9,6.8-46.4,20.5-58.4s31.5-17.9,53.5-17.9c0.7,0,1.4,0,2.1,0
	c-8.2,19.2-12.3,40.3-12.3,63.2c0,30.7,7.5,58.2,22.5,82.3c15,24.1,36,43.1,63.2,56.9c27.1,13.9,58.9,20.8,95.4,20.8
	c29.2,0,54.7-4.3,76.6-12.8c21.8-8.5,39.9-21,54.4-37.3l-56.4-59.2c-10.6,9.1-21.3,15.9-32.2,20.2c-10.8,4.4-23.8,6.5-39,6.5
	c-16.7,0-30.9-2.9-42.7-8.8c-11.8-5.9-20.7-15-26.8-27.3c-0.1-0.3-0.2-0.5-0.4-0.8l194-37.2c0.5,29.4,8,55.7,22.4,79
	c15,24.1,36,43.1,63.2,56.9c27.1,13.9,58.9,20.8,95.4,20.8c29.6,0,55.2-4.3,76.8-12.8s39.8-21,54.7-37.3l-56.9-59.2
	c-10.6,9.1-21.3,15.9-32.2,20.2c-10.8,4.4-23.8,6.5-39,6.5c-16.3,0-30.4-2.9-42.1-8.8c-11.8-5.9-20.8-14.3-27-25.3
	c-2.7-4.7-4.8-9.9-6.3-15.4h219v127h108.2V337.1c0-26.9,6.8-46.4,20.5-58.4s31.5-17.9,53.5-17.9c4.2,0,8.1,0.1,11.7,0.3
	c3.6,0.2,7.9,0.7,12.8,1.4v-97.4C1306.9,165.2,1282,171,1261.6,182.6L1261.6,182.6z M321.1,391l-67.7-34.6
	c-7.2,14.4-16.1,25-26.8,31.6c-10.6,6.6-22.2,10-34.7,10s-23.9-2.9-34.2-8.5s-18.3-14-24.2-25c-5.9-11-8.8-24.5-8.8-40.4
	s2.9-28.8,8.8-39.6c5.9-10.8,13.9-19.1,24.2-24.8s21.6-8.5,34.2-8.5s24.1,3.3,34.7,10c10.6,6.6,19.5,17.2,26.8,31.6l67.7-34.6V391
	L321.1,391z M599.2,309c0.8-12.6,3.4-23.5,7.7-32.9c5.3-11.4,13-19.9,23.1-25.6c10-5.7,21.5-8.5,34.4-8.5s23.5,2.9,33,8.5
	c9.5,5.7,16.9,13.4,22.2,23.1c2,3.6,3.5,7.3,4.7,11.2L599.2,309L599.2,309z M908.8,295c1.3-7.4,3.5-14.1,6.6-20.2
	c5.3-10.4,12.8-18.5,22.5-24.2s21-8.5,33.9-8.5s24.2,2.9,33.9,8.5c9.7,5.7,17.3,13.7,22.8,23.9c3.3,6.1,5.5,13,6.7,20.5H908.8
	L908.8,295z"/>
<path d="M1008.5,511l-39.2,87H986l8.6-20.1h43.5l8.7,20.1h16.9l-39.3-87H1008.5L1008.5,511z M1000,565.2l16.3-38.1l16.3,38.1H1000
	L1000,565.2z"/>
<path d="M1137.7,516.5c-7.1-3.7-15.4-5.5-24.9-5.5h-38v87h38c9.4,0,17.7-1.8,24.9-5.5c7.1-3.7,12.7-8.7,16.7-15.2
	c4-6.5,6-14.1,6-22.8s-2-16.4-6-22.9S1144.8,520.1,1137.7,516.5L1137.7,516.5z M1140.1,570.2c-2.6,4.5-6.3,8-11.1,10.4
	c-4.8,2.5-10.4,3.7-17,3.7h-21.1v-59.7h21.1c6.5,0,12.2,1.2,17,3.7c4.8,2.5,8.4,6,11.1,10.4c2.6,4.4,3.9,9.7,3.9,15.7
	S1142.7,565.7,1140.1,570.2L1140.1,570.2z"/>
<path d="M1229.4,555c-3-1.7-6.4-3.2-10.1-4.2c-3.7-1.1-7.4-2-11.1-2.9c-3.7-0.9-7.1-1.8-10.1-2.7c-3-0.9-5.5-2.2-7.3-3.8
	c-1.9-1.6-2.8-3.8-2.8-6.4c0-2.2,0.6-4.2,1.9-6c1.3-1.7,3.3-3.2,6.1-4.2c2.8-1.1,6.4-1.6,10.9-1.6c3.8,0,7.8,0.6,11.9,1.7
	s8.2,2.8,12.1,5.2l5.1-12.5c-3.8-2.5-8.3-4.4-13.4-5.7c-5.1-1.3-10.3-2-15.5-2c-8,0-14.5,1.2-19.7,3.5c-5.2,2.4-9,5.5-11.6,9.5
	s-3.8,8.3-3.8,13s0.9,8.5,2.9,11.4s4.4,5.4,7.4,7.2c3,1.8,6.4,3.2,10.1,4.3s7.4,2.1,11.1,2.9c3.7,0.8,7,1.7,10.1,2.7
	c3,1,5.5,2.2,7.4,3.8c1.9,1.6,2.9,3.8,2.9,6.4c0,2.2-0.7,4.1-2,5.8s-3.4,3-6.2,4c-2.8,1-6.5,1.5-11.1,1.5c-5.4,0-10.7-0.9-15.8-2.7
	s-9.4-4.1-12.9-6.8l-5.6,12.5c3.6,3.1,8.6,5.6,14.8,7.5c6.2,2,12.7,2.9,19.5,2.9c8,0,14.5-1.2,19.8-3.5s9.1-5.5,11.6-9.5
	c2.5-3.9,3.8-8.2,3.8-12.9s-0.9-8.3-2.8-11.3C1234.9,559.1,1232.5,556.7,1229.4,555L1229.4,555z"/>
<path d="M1261.6,578.2c-2.8,0-5.2,0.9-7.2,2.8c-2,1.9-3,4.4-3,7.5c0,3,1,5.5,3,7.4s4.4,2.9,7.2,2.9s5.2-1,7.2-2.9s3-4.4,3-7.4
	c0-3.2-1-5.7-3-7.5C1266.8,579.2,1264.4,578.2,1261.6,578.2z"/>
</svg>
